<?xml version="1.0" standalone="no"?><svg xmlns:xlink="http://www.w3.org/1999/xlink" xmlns="http://www.w3.org/2000/svg" viewBox="0 0 1000 400" preserveAspectRatio="xMaxYMax slice"><g transform="scale(0.8818342151675485)"><rect x="0" y="0" width="1134" height="453.6" fill="#ffffff"/><circle cx="56.7" cy="56.7" r="11.34" fill="#f5e8e8"/><circle cx="170.1" cy="56.7" r="11.34" fill="#a62d2d"/><circle cx="283.5" cy="56.7" r="11.34" fill="#bd6464"/><circle cx="396.9" cy="56.7" r="11.34" fill="#2c8d37"/><circle cx="510.29999999999995" cy="56.7" r="11.34" fill="#c06b6b"/><circle cx="623.7" cy="56.7" r="11.34" fill="#5da766"/><circle cx="737.1" cy="56.7" r="11.34" fill="#6baf73"/><circle cx="850.5" cy="56.7" r="11.34" fill="#d2e7d5"/><circle cx="963.9" cy="56.7" r="11.34" fill="#d29595"/><circle cx="1077.3" cy="56.7" r="11.34" fill="#bb5f5f"/><circle cx="56.7" cy="170.1" r="11.34" fill="#fdfefd"/><circle cx="170.1" cy="170.1" r="11.34" fill="#e5f1e6"/><circle cx="283.5" cy="170.1" r="11.34" fill="#a93535"/><circle cx="396.9" cy="170.1" r="11.34" fill="#f8eeee"/><circle cx="510.29999999999995" cy="170.1" r="11.34" fill="#82bb89"/><circle cx="623.7" cy="170.1" r="11.34" fill="#8bc091"/><circle cx="737.1" cy="170.1" r="11.34" fill="#abd2b0"/><circle cx="850.5" cy="170.1" r="11.34" fill="#ad3d3d"/><circle cx="963.9" cy="170.1" r="11.34" fill="#dfb3b3"/><circle cx="1077.3" cy="170.1" r="11.34" fill="#56a45f"/><circle cx="56.7" cy="283.5" r="11.34" fill="#b5d7b9"/><circle cx="170.1" cy="283.5" r="11.34" fill="#6eb075"/><circle cx="283.5" cy="283.5" r="11.34" fill="#c47474"/><circle cx="396.9" cy="283.5" r="11.34" fill="#d7a1a1"/><circle cx="510.29999999999995" cy="283.5" r="11.34" fill="#d59b9b"/><circle cx="623.7" cy="283.5" r="11.34" fill="#ab3838"/><circle cx="737.1" cy="283.5" r="11.34" fill="#9ac89f"/><circle cx="850.5" cy="283.5" r="11.34" fill="#dcecde"/><circle cx="963.9" cy="283.5" r="11.34" fill="#a02020"/><circle cx="1077.3" cy="283.5" r="11.34" fill="#e0eee1"/><circle cx="56.7" cy="396.9" r="11.34" fill="#5aa663"/><circle cx="170.1" cy="396.9" r="11.34" fill="#6caf74"/><circle cx="283.5" cy="396.9" r="11.34" fill="#d59d9d"/><circle cx="396.9" cy="396.9" r="11.34" fill="#e4f0e6"/><circle cx="510.29999999999995" cy="396.9" r="11.34" fill="#badabe"/><circle cx="623.7" cy="396.9" r="11.34" fill="#e9cccc"/><circle cx="737.1" cy="396.9" r="11.34" fill="#158021"/><circle cx="850.5" cy="396.9" r="11.34" fill="#c8e1cb"/><circle cx="963.9" cy="396.9" r="11.34" fill="#bad9bd"/><circle cx="1077.3" cy="396.9" r="11.34" fill="#c7e1ca"/></g></svg>