<?xml version="1.0" encoding="iso-8859-1"?>

<svg version="1.1" id="Capa_1" xmlns="http://www.w3.org/2000/svg" xmlns:xlink="http://www.w3.org/1999/xlink" x="0px" y="0px"
	 viewBox="0 0 430.004 430.004" style="enable-background:new 0 0 430.004 430.004;" xml:space="preserve">
<g>
	<g>
		<circle cx="215.001" cy="236.049" r="70.4"/>
	</g>
</g>
<g>
	<g>
		<path d="M215.001,103.849c-72.9,0-132.1,59.3-132.1,132.1s59.2,132.2,132.1,132.2s132.1-59.3,132.1-132.1
			S287.901,103.849,215.001,103.849z M215.001,326.449c-50,0-90.4-40.5-90.4-90.4c0-49.9,40.5-90.4,90.4-90.4s90.4,40.5,90.4,90.4
			C305.401,285.949,264.901,326.449,215.001,326.449z"/>
	</g>
</g>
<g>
	<g>
		<path d="M69.001,56.049c-5.5,0-10,4.5-10,10v46h-9.6l-0.4-46c0-5.5-4.5-10-10-10h-0.1c-5.5,0.1-10,4.6-9.9,10.1l0.3,45.9h-9.3v-46
			c0-5.5-4.5-10-10-10s-10,4.5-10,10v54.2c0,0.3,0,0.6,0,0.9s0,0.6,0,0.9v25.3c-0.1,17.9,11.9,33.7,29.2,38.4l0.3,190.3h20
			l-0.5-190.2c17.7-4.4,30.1-20.4,30.1-38.6v-25.3c0-0.3,0-0.6,0-0.9s0-0.6,0-0.9v-54.1C79.001,60.549,74.501,56.049,69.001,56.049z
			"/>
	</g>
</g>
<g>
	<g>
		<path d="M425.001,45.249c-3.2-1.7-7.1-1.6-10.1,0.4l-50.7,32.8c-2.8,1.9-4.6,5-4.5,8.4l0.4,160.1c0,5.5,4.5,10,10,10h9.4
			l-10.1,118.2c-0.5,5.5,3.6,10.3,9.1,10.8c0.3,0,0.6,0,0.9,0h41c5.4,0,9.7-4.4,9.6-9.8c0-0.1,0-0.2,0-0.2v-321.9
			C430.101,50.449,428.101,47.049,425.001,45.249z"/>
	</g>
</g>
<g>
</g>
<g>
</g>
<g>
</g>
<g>
</g>
<g>
</g>
<g>
</g>
<g>
</g>
<g>
</g>
<g>
</g>
<g>
</g>
<g>
</g>
<g>
</g>
<g>
</g>
<g>
</g>
<g>
</g>
</svg>
